PathFileType	4	(X/Y/Z)	D:\TRACE\spot_10-12-23\spot_arm_body_motion_1_8-v60.trc
DataRate	CameraRate	NumFrames	NumMarkers	Units	OrigDataRate	OrigDataStartFrame	OrigNumFrames
100.00	100.00	      21	9	mm	100.00	6126	      7000
Frame#	Time	front left toe			Front right toe			aft left toe			aft right toe			Arm			FL body			FR body			AL Body			AR Body			
		X1	Y1	Z1	X2	Y2	Z2	X3	Y3	Z3	X4	Y4	Z4	X5	Y5	Z5	X6	Y6	Z6	X7	Y7	Z7	X8	Y8	Z8	X9	Y9	Z9	

6126	61.250	-165.06927	16.09281	-415.33566	317.24289	21.75908	-451.47079	-128.71259	19.29516	210.15300	354.42688	29.87835	133.07912	62.20719	798.10455	-715.43427	-46.42212	613.97614	-458.90533	107.30304	617.00323	-460.45502	-41.62172	568.71179	422.53476	99.94115	566.02179	423.63104	
6127	61.260	-164.32382	16.03417	-415.61282	317.71915	21.39088	-451.25476	-128.67009	19.67756	210.10986	355.07700	29.85508	133.11642	62.98337	794.56110	-717.08112	-44.31431	614.13416	-459.42792	109.14172	617.23413	-461.40744	-40.70645	569.09052	421.82309	101.33759	566.11188	422.96991	
6128	61.270	-163.75600	16.10365	-415.77518	318.70914	21.02161	-451.07977	-127.67636	19.66887	209.90050	355.42514	29.91612	133.00153	63.34874	790.24054	-719.81989	-42.42322	614.14099	-459.88455	110.31931	616.93890	-461.50092	-39.02500	568.87555	421.20206	102.80768	566.54877	422.71191	
6129	61.280	-163.29170	16.01466	-415.90161	319.52319	20.56728	-451.11536	-126.81098	19.68952	209.88138	355.85657	29.92379	132.98538	63.68905	785.66327	-722.62988	-40.49762	613.70801	-460.34512	111.86076	616.35760	-461.91467	-37.65929	570.02417	420.78546	104.19225	566.77863	422.22943	
6130	61.290	-162.83698	15.66227	-415.98004	320.19580	20.07321	-451.40442	-126.68140	20.19707	209.54156	356.31970	29.82010	132.92813	64.08002	780.96295	-725.52582	-38.56957	612.90039	-460.73337	115.21524	615.22809	-461.99973	-35.79967	570.71960	420.52689	105.65382	567.72675	422.14664	
6131	61.300	-162.43309	15.25166	-416.06696	320.54623	19.52424	-451.59561	-125.94982	20.11048	209.55151	356.74576	29.76163	132.85381	64.34315	777.15057	-728.27893	-36.66277	611.48035	-460.96936	116.89774	613.22034	-461.63242	-33.69835	571.34943	420.13974	107.49290	568.36682	421.64624	
6132	61.310	-162.03732	14.94508	-416.16360	320.95889	19.07786	-451.61093	-125.48489	20.30876	209.47694	357.28632	29.69071	132.61569	64.78333	774.11481	-730.55640	-34.94510	610.14996	-461.43652	118.91988	612.30988	-463.22433	-31.77448	572.89465	420.12595	109.29768	569.44745	421.43054	
6133	61.320	-161.55591	14.73868	-416.16663	321.12549	18.64288	-451.72543	-124.91290	20.90885	209.41588	357.97986	29.82984	132.34061	65.33648	772.10925	-732.43585	-33.41760	608.68262	-461.91339	120.42397	610.46942	-463.20572	-29.96640	574.35706	419.82553	111.56815	570.66071	421.08221	
6134	61.330	-161.12630	14.63639	-416.20224	321.56683	18.51900	-451.55795	-124.52112	21.53432	209.18867	358.47678	29.89761	132.24934	66.02475	771.03040	-733.66089	-31.77693	606.95203	-462.28403	122.10590	608.70416	-464.30991	-27.66021	575.63470	419.55209	113.89117	572.06152	421.08789	
6135	61.340	-160.84633	14.52444	-416.17365	322.01028	18.25114	-451.41412	-124.10375	21.61280	209.11694	358.11945	29.63008	132.62073	66.70648	770.69537	-734.48730	-30.16027	605.27850	-462.64688	123.44019	606.81134	-464.40372	-25.48822	576.89545	419.25623	116.18161	572.84973	420.40622	
6136	61.350	-160.66946	14.31742	-416.13699	322.37497	18.00174	-451.36276	-123.59289	21.57148	209.16531	358.54938	29.54410	132.55382	67.47640	771.04510	-734.88281	-28.61552	603.53888	-462.99167	125.32326	604.99634	-465.18491	-23.13679	577.59338	418.98376	118.42330	573.75934	419.99570	
6137	61.360	-160.36946	14.01959	-416.15283	322.72342	17.76807	-451.24948	-123.16204	21.65556	209.11478	359.13571	29.41514	132.47116	68.31911	772.11078	-734.75134	-26.93799	602.32544	-463.18509	126.60665	603.59924	-465.01224	-20.86126	578.27350	418.86978	120.61179	574.22998	419.81583	
6138	61.370	-159.93394	13.87915	-416.21875	323.02368	17.40902	-451.21826	-122.73238	21.88397	209.00586	359.63495	29.35135	132.49037	69.28411	773.54388	-734.35376	-25.04724	601.16248	-463.43939	128.94499	602.59967	-465.75735	-18.60200	578.55292	418.64441	123.19364	574.60388	420.14243	
6139	61.380	-159.60542	13.94464	-416.31332	323.16281	16.99051	-451.32852	-122.08060	21.76060	209.17717	360.00177	29.25101	132.37036	70.08794	775.05029	-733.87000	-23.21017	600.47784	-463.67181	130.44278	601.70007	-465.49399	-16.49806	578.38965	418.49509	125.49737	574.51428	419.88348	
6140	61.390	-159.33707	14.04165	-416.30087	323.35681	16.68836	-451.30020	-122.00467	21.98862	209.09628	360.19794	29.12555	132.36295	70.67406	776.59247	-733.11639	-21.13353	600.01276	-463.80112	132.83763	601.19141	-466.01587	-14.66850	578.07556	418.31506	127.17874	574.01062	419.18002	
6141	61.400	-159.04486	13.95776	-416.37839	323.60568	16.18069	-451.30576	-121.94104	22.07126	208.99226	360.41995	28.95140	132.31491	71.11131	777.84344	-732.42767	-18.89321	599.47174	-463.83807	134.76407	600.82538	-465.96039	-12.77360	577.44751	418.31995	128.87355	573.51672	419.37329	
6142	61.410	-158.69371	13.88597	-416.45261	323.76059	15.65820	-451.57983	-121.79268	21.96000	208.99174	359.65140	28.19292	132.29338	71.56577	778.96008	-731.63745	-16.74849	599.18103	-463.54556	136.93762	600.74078	-465.93936	-10.92233	576.69958	418.43716	130.41081	572.81390	419.25641	
6143	61.420	-158.38821	13.84951	-416.56464	323.93311	15.28270	-451.46432	-121.59030	22.01282	208.96205	359.74490	28.17120	132.36882	72.11715	779.58893	-730.96338	-14.55446	599.25916	-463.25558	139.57367	600.70288	-465.44412	-8.98917	576.13416	418.66293	132.66054	572.27533	419.79578	
6144	61.430	-158.13530	13.88984	-416.68765	324.01733	15.02265	-451.35608	-122.29710	23.15469	208.83400	360.68799	28.91306	132.70059	72.21202	780.01733	-730.52692	-12.15826	599.01489	-463.05521	141.45328	600.73022	-464.87219	-7.00752	575.47406	418.96841	134.45377	571.84705	419.84140	
6145	61.440	-157.98955	13.93872	-416.76627	324.40799	14.74369	-451.16904	-121.32213	22.72141	208.84134	360.83850	28.85761	132.73445	72.35149	780.14874	-730.13745	-9.91943	599.09161	-462.82379	143.87521	601.02972	-465.00043	-5.61722	575.39575	419.65277	136.70120	571.30048	420.51508	
6146	61.450	-157.95988	13.84620	-416.91360	324.65948	14.31679	-451.42172	-121.55947	23.43250	208.59509	360.96371	28.79574	132.75201	72.20676	779.91425	-729.71277	-7.86957	598.84277	-462.30209	146.21204	600.93097	-464.22455	-3.18581	574.44989	419.82291	138.29671	571.25598	420.83389	
